<?xml version="1.0" encoding="utf-8"?>
<!-- Generator: Adobe Illustrator 18.1.1, SVG Export Plug-In . SVG Version: 6.00 Build 0)  -->
<!DOCTYPE svg PUBLIC "-//W3C//DTD SVG 1.1//EN" "http://www.w3.org/Graphics/SVG/1.1/DTD/svg11.dtd">
<svg version="1.1" id="Layer_1" xmlns="http://www.w3.org/2000/svg" xmlns:xlink="http://www.w3.org/1999/xlink" x="0px" y="0px"
	 viewBox="0 0 633 143.5" enable-background="new 0 0 633 143.5" xml:space="preserve">
<path fill="#FFFFFF" d="M49.3,94.7c6.8,5.3,13.5,8.2,13.7,8.3l0.5,0.2l0.5-0.2c0.3-0.1,6.9-3,13.7-8.3c9.1-7.1,13.9-15.2,13.9-23.4
	l0-37.6l-56.3,0l0,36.9C35.4,79.2,40.2,87.5,49.3,94.7z M62.3,83.2c-0.3-0.1-0.6-0.2-1-0.2h-0.1c-1.4,0-2.4,0.1-3.5,0.2
	c-1.1,0.1-2.2,0.2-3.8,0.2c-0.7,0-1.4,0-1.9,0V65.8h0.2c0.7,0,1.5,0,2.6,0c0.9,0,1.9-0.1,3-0.2c0.6-0.1,1.3-0.1,2-0.2
	c1.2-0.1,2.2,0.1,2.2,0.1c0.1,0,0.2,0.1,0.3,0.1L62.3,83.2L62.3,83.2z M89,71.3c0,15.4-18.9,25.8-24.5,28.5v-14
	c0.1-0.1,0.2-0.2,0.3-0.3c0.3-0.3,0.5-0.5,1-0.5c1.3,0,2.3,0.1,3.4,0.2c1.1,0.1,2.2,0.2,3.9,0.2c1.7,0,3,0,3,0l0.9-0.1l0-5.2h2.2
	v-2.8h-2.2l0-5.1h2.2v-2.8h-2.2l0-5.7l-1,0c-0.4,0-0.8,0-1.3,0c-0.7,0-1.5,0-2.5,0c-0.8,0-1.7-0.1-2.8-0.2c-0.6-0.1-1.3-0.1-2-0.2
	c-1.5-0.2-2.8,0.1-2.9,0.1c0,0,0,0-0.1,0v-5.4H89L89,71.3z M64.6,83.3V65.5c0.1-0.1,0.3-0.1,0.5-0.2c0,0,1.1-0.2,2.3-0.1
	c0.7,0.1,1.4,0.1,2,0.2c1.1,0.1,2.1,0.2,3,0.2c0.9,0,1.6,0,2.2,0h0.5l0,17.7c-0.5,0-1.2,0-1.9,0c-1.6,0-2.7-0.1-3.8-0.2
	c-1.1-0.1-2.1-0.2-3.5-0.2C65.3,83,64.9,83.1,64.6,83.3z M38.1,36.4l51,0l0,19.1h-51L38.1,36.4z M38.1,58.1h24.2v5.3
	c-0.4-0.1-1.5-0.2-2.7-0.1c-0.7,0.1-1.4,0.1-2,0.2c-1.1,0.1-2,0.2-2.8,0.2c-1,0-1.8,0-2.5,0c-0.5,0-0.9,0-1.3,0l-1,0v5.1h-2.4v2.8
	H50v5.1h-2.4v2.8H50v5.7l0.9,0.1c0.1,0,1.4,0.1,3,0c1.7,0,2.9-0.1,3.9-0.2c1.1-0.1,2-0.2,3.3-0.2c0.5,0,0.7,0.1,0.9,0.5
	c0,0,0.1,0.1,0.1,0.2v14c-5.9-2.9-24.2-13.2-24.2-29.1L38.1,58.1z M59.4,38.3H45.1v1c0,3.1,0,8.4,0,8.6c0.1,1.1,0.8,2.1,2.2,3
	c1.7,1.2,4.3,2.7,4.4,2.7l0.5,0.3l0.5-0.3c0.1-0.1,2.9-1.6,4.6-2.7c2-1.3,2.1-2.6,2.1-3c0-0.2,0-4.8,0-8.6L59.4,38.3L59.4,38.3z
	 M47.1,40.3h10.2c0,0.8,0,1.7,0,2.6H47.1C47.1,42,47.1,41.1,47.1,40.3z M57.3,47.8c0,0.5-0.7,1-1.2,1.4c-1.2,0.8-3.1,1.9-4,2.4
	c-0.8-0.5-2.6-1.5-3.8-2.4c-0.8-0.5-1.3-1.1-1.3-1.4c0-0.1,0-1.3,0-2.9h10.2C57.4,46.4,57.4,47.6,57.3,47.8z M83.6,37.8H69v1
	c0,3.9,0,8.6,0,8.8c0.1,1.1,0.8,2.1,2.2,3c1.8,1.2,4.4,2.7,4.5,2.8l0.5,0.3l0.5-0.3c0.1-0.1,3-1.6,4.7-2.8c2.1-1.4,2.1-2.6,2.1-3
	c0-0.2,0-4.9,0-8.8L83.6,37.8z M81.6,47.6c0,0.5-0.7,1.1-1.2,1.4c-1.3,0.8-3.2,1.9-4.1,2.4c-0.9-0.5-2.6-1.6-3.9-2.4
	c-0.4-0.3-1.3-0.9-1.3-1.5c0-0.1,0-0.2,0-0.5l5-3.6l5.5,3.7C81.6,47.3,81.6,47.5,81.6,47.6z M76,40.9l-5,3.6c0-1.4,0-3.2,0-4.7h10.5
	c0,1.6,0,3.3,0,4.8L76,40.9z M67.2,69.5l0.9,0.1c0.6,0.1,1.2,0.1,1.7,0.1l2.9,0.1l0-2l-2.9-0.1c-0.4,0-0.9-0.1-1.5-0.1l-1-0.1
	c-0.3,0-0.5,0-0.7,0l0.1,2C66.9,69.5,67,69.5,67.2,69.5z M69.9,73.3c-0.4,0-0.9-0.1-1.4-0.1c-0.3,0-0.7-0.1-1-0.1
	c-0.3,0-0.5,0-0.7,0l0,2c0.1,0,0.3,0,0.5,0c0.4,0,0.7,0.1,1,0.1c0.6,0.1,1.1,0.1,1.6,0.1c0.6,0,1.5,0,2.2,0l0.8,0l0-2l-0.8,0
	C71.4,73.3,70.5,73.3,69.9,73.3z M69.9,79c-0.4,0-0.9-0.1-1.5-0.1c-0.3,0-0.7-0.1-1-0.1c-0.3,0-0.5,0-0.7,0l0.1,2c0.1,0,0.3,0,0.5,0
	c0.4,0,0.7,0.1,1,0.1c0.6,0.1,1.2,0.1,1.6,0.1l0.8,0c0.8,0,1.8,0,2.1,0.1l0-2c-0.3,0-1.3,0-2.1,0L69.9,79z M57.3,69.7
	c0.5,0,1-0.1,1.7-0.1c0.3,0,0.6-0.1,1-0.1c0.2,0,0.3,0,0.5,0l0-2c-0.2,0-0.4,0-0.7,0c-0.4,0-0.7,0.1-1,0.1c-0.6,0.1-1.1,0.1-1.5,0.1
	l-2.9,0.1l0,2L57.3,69.7z M58.7,73.1c-0.6,0.1-1.1,0.1-1.5,0.1l-2.9,0.1l0,2l2.9-0.1c0.5,0,1-0.1,1.7-0.1l0.9-0.1c0.2,0,0.3,0,0.4,0
	l0.1-2c-0.2,0-0.4,0-0.7,0L58.7,73.1z M58.7,78.8c-0.6,0.1-1.1,0.1-1.6,0.1c-0.9,0-2.4,0.1-2.8,0.1l0,2c0.4,0,1.9-0.1,2.9-0.1
	c0.5,0,1-0.1,1.7-0.1l1-0.1c0.1,0,0.3,0,0.4,0l0-2c-0.2,0-0.4,0-0.7,0L58.7,78.8z M12.9,63.4c2.5,0,4-1.6,4.2-4.4
	c0-0.5,0-1.1-0.1-1.9l0-0.2l-2.1,0l0.2,0.4c0.1,0.3,0.2,1,0.2,1.6c-0.1,1.4-1.2,2.3-2.7,2.2C10.9,61,10,60,10,58.6
	c0-0.5,0.1-1,0.5-1.5l0.3-0.4l-2-0.3l-0.1,0.2c-0.3,0.5-0.4,1.3-0.5,1.9c-0.2,2.9,1.4,4.8,4.3,4.9C12.6,63.4,12.7,63.4,12.9,63.4z
	 M13.2,53.6c0.6,0.2,1.1,0.2,1.6,0.2c1.9,0,3.3-1.1,3.9-3c0.3-1.2,0.2-2.2-0.3-3.1c-0.5-1-1.6-1.7-2.9-2.1c-0.5-0.2-1.1-0.2-1.5-0.2
	c-1.9,0-3.3,1.1-3.9,3C9.4,50.8,10.6,52.8,13.2,53.6z M11.9,48.8c0.3-1.1,1.2-1.3,1.9-1.3c0.3,0,0.7,0.1,1.1,0.2
	c0.9,0.3,1.6,0.7,1.9,1.3c0.2,0.4,0.3,0.8,0.1,1.3c-0.3,1.1-1.2,1.3-1.9,1.3c-0.4,0-0.7-0.1-1.1-0.2C12.7,51.1,11.5,50.2,11.9,48.8z
	 M21.8,42.3l-2.9-1.6l0.1-0.2c0.3-0.5,0.5-0.5,0.9-0.4l2.9,0.4l1.1-2.1L20.1,38c-0.3,0-0.5,0-0.7,0c0-0.8-0.4-1.6-1.2-2
	c-0.4-0.2-0.8-0.3-1.2-0.3c-1.4,0-2.1,1.4-2.8,2.6l-1,1.9l7.6,4.1L21.8,42.3z M17.3,39.7l-0.1,0.2l-1.4-0.7l0.1-0.2
	c0.3-0.6,0.7-1.2,1.3-0.9c0.2,0.1,0.3,0.2,0.4,0.4C17.7,38.9,17.5,39.4,17.3,39.7z M26.6,34.8l-3.9-3.2l5.6,1.3l1.5-1.9l-6.6-5.5
	l-1.4,1.6l3.9,3.2l-5.5-1.3L18.6,31l6.6,5.5L26.6,34.8z M36.2,25.5L35,24.1l-2.4,2l-1-1.3l2.2-1.8l-1.2-1.4l-2.2,1.8l-0.9-1.1
	l2.4-1.9l-1.2-1.4l-4.1,3.3l5.4,6.7L36.2,25.5z M43.3,21.2l-0.9-1.6l-2.7,1.5l-3.3-5.9l-1.9,1.1l4.2,7.5L43.3,21.2z M50.6,18.4
	l-0.6-1.8l-2.9,1l-2.3-6.4l-2.1,0.7l2.9,8.1L50.6,18.4z M59.3,17c0.2,0,0.3,0,0.5,0c1.2-0.1,2.1-0.5,2.6-1.1
	c0.5-0.6,0.7-1.5,0.6-2.5L62.6,8l-2.2,0.2l0.4,4.9c0.1,1.7-0.6,2-1.2,2.1c-0.1,0-0.1,0-0.2,0c-0.5,0-1.2-0.2-1.3-1.9l-0.4-4.9
	l-2.2,0.2L56,14C56.2,16,57.3,17,59.3,17z M69.1,11.9l1.9,5.4l2.4,0.3L74.6,9l-2.1-0.3l-0.7,5l-1.9-5.4l-2.4-0.3l-1.2,8.6l2.1,0.3
	L69.1,11.9z M81,10.9L79,10.2l-2.6,8.2l2.1,0.7L81,10.9z M91.9,15.7l-2-1L85.7,19l0.9-5.9L84.6,12l-1.3,9l2.1,1.1L91.9,15.7z
	 M94,28.1l1.2-1.5l-2.5-1.9l1-1.3l2.2,1.7l1.1-1.5l-2.2-1.7l0.8-1.1l2.4,1.9l1.2-1.5L95.2,18l-5.3,6.8L94,28.1z M97.6,31.7l2.5-2.2
	l0.1,0.2c0.3,0.4,0.3,0.5,0.1,1L99,33.2l1.6,1.8l1.7-3.4c0.1-0.1,0.2-0.4,0.2-0.7c0.7,0.3,1.6,0.2,2.3-0.4c1.9-1.6,0.4-3.3-0.7-4.6
	l-1.4-1.6L96.2,30L97.6,31.7z M102.7,27.2l0.1,0.2c0.3,0.4,0.6,0.8,0.6,1.1c0,0.2-0.1,0.3-0.3,0.4c-0.2,0.1-0.3,0.2-0.5,0.2
	c-0.4,0-0.8-0.4-1-0.7l-0.1-0.2L102.7,27.2z M105.6,38.6c-0.4,0.2-1-0.2-1.2-0.6c-0.3-0.5-0.4-1-0.4-1.7l0-0.5l-2,0.9l0.1,0.4
	c0.2,0.7,0.3,1.1,0.7,1.8c0.7,1.2,1.6,1.8,2.6,1.8c0.5,0,0.9-0.1,1.4-0.4c1.5-0.9,1.3-2.3,1.1-3.4c-0.1-0.7-0.2-1.2,0.1-1.4
	c0.2-0.1,0.3-0.1,0.4-0.1c0.4,0,0.7,0.4,0.8,0.5c0.2,0.4,0.4,0.9,0.5,1.4l0.1,0.4l1.8-0.8l0-0.2c-0.1-0.6-0.4-1.2-0.8-1.9
	c-0.9-1.6-2.5-2.1-3.9-1.2c-1.5,0.9-1.3,2.3-1.1,3.3C106,37.9,106,38.4,105.6,38.6z M106.6,46.4l8-3.3l-0.8-2l-8,3.3L106.6,46.4z
	 M114.7,49.2l-6.6,1.6l0.5,2.1l6.6-1.6l0.5,2.2l1.8-0.4l-1.6-6.5l-1.8,0.4L114.7,49.2z M109.6,59.7l0.1,2.2l3.4-0.2l5.4,2.8
	l-0.1-2.4l-3.2-1.6l3-1.9l-0.1-2.6l-5.1,3.4L109.6,59.7z M14.5,79.5l1.8-0.5l-0.8-2.6l1.3-0.4l0.8,2.7l1.8-0.5l-1.4-4.9l-8.3,2.4
	l0.6,2.1l3.4-1L14.5,79.5z M22.2,86.6c0.3-1,0.2-2.1-0.3-3.2c-0.8-1.6-2-2.4-3.5-2.4c-0.7,0-1.5,0.2-2.3,0.6
	c-1.3,0.6-2.1,1.5-2.5,2.6c-0.3,1-0.2,2.1,0.3,3.2c0.8,1.5,2,2.4,3.6,2.4c0.7,0,1.5-0.2,2.3-0.6C21,88.6,21.9,87.7,22.2,86.6z
	 M18.8,87.1c-0.5,0.3-1.1,0.4-1.6,0.4c-0.8,0-1.3-0.3-1.6-1c-0.2-0.5-0.3-0.9-0.1-1.3c0.2-0.6,0.8-1.2,1.6-1.6
	c0.5-0.2,1-0.4,1.5-0.4c0.8,0,1.3,0.3,1.6,1c0.2,0.5,0.3,0.9,0.1,1.3C20.1,86.2,19.6,86.7,18.8,87.1z M28.2,93.3l-3.9,3.1
	c-1,0.8-1.8,0.9-2.4,0.2c-0.2-0.3-0.3-0.6-0.3-0.9c0.1-0.4,0.4-0.9,1-1.4l3.9-3.1l-1.4-1.7l-4.3,3.4c-0.9,0.7-1.4,1.5-1.4,2.3
	c0,0.8,0.3,1.6,1,2.5c0.8,1.1,1.7,1.6,2.7,1.6c0.7,0,1.4-0.3,2.1-0.9l4.3-3.4L28.2,93.3z M35.5,100.3l-3.2,3.9l1.2-5.6l-1.9-1.6
	l-5.5,6.7l1.7,1.3l3.2-3.9l-1.2,5.6l1.9,1.5l5.5-6.7L35.5,100.3z M41.9,104.4l-2.2-1.1l-3.9,7.7l2.2,1.1c1.1,0.5,2,0.8,2.9,0.8
	c1.5,0,2.7-0.8,3.5-2.4C45.6,107.9,44.8,105.9,41.9,104.4z M42.3,109.5c-0.4,0.9-1.2,1.4-2.1,1.4c-0.4,0-0.7-0.1-1.1-0.3l-0.5-0.3
	l2.2-4.4l0.5,0.3c0.6,0.3,1,0.8,1.2,1.3C42.7,108.2,42.6,108.8,42.3,109.5z M46.7,115.8l5.2,1.4l0.5-1.8l-3-0.8l0.4-1.6l2.8,0.7
	l0.5-1.8l-2.8-0.7l0.4-1.3l3,0.8l0.5-1.8l-5.1-1.4L46.7,115.8z M59.4,109.5l-2.5-0.1l-0.5,8.6l2.5,0.1c0.2,0,0.4,0,0.6,0
	c2.9,0,4.4-1.4,4.6-4c0.1-1.3-0.2-2.4-0.9-3.1C62.4,110.1,61.1,109.6,59.4,109.5z M59.3,116.3l-0.6,0l0.3-4.9l0.6,0
	c1.2,0.1,2.3,1,2.2,2.6C61.7,115.6,60.4,116.3,59.3,116.3z M71.7,108.9l-1.5,9.1l2.3-0.5l0.3-1.9l2.8-0.6l1.1,1.7l2.4-0.5l-5.1-7.7
	L71.7,108.9z M73,113.6l0.3-2.3l1.2,1.9L73,113.6z M79.9,113.3l0.7,2.1l2.1-0.7l-0.8-2.1L79.9,113.3z M84.1,104.6l-2.2,1.2l4.1,7.6
	l2.2-1.2c2.9-1.6,3.6-3.6,2.3-6.1C89.1,103.5,86.9,103,84.1,104.6z M87.6,110.4l-0.5,0.3l-2.3-4.3l0.5-0.3c0.3-0.2,0.7-0.3,1.1-0.3
	c0.9,0,1.6,0.5,2.1,1.3C89.2,108.5,88.6,109.8,87.6,110.4z M92.1,107.3l1.3,1.8l1.8-1.3l-1.3-1.8L92.1,107.3z M95.5,96.3l-0.4,3.4
	l1.9,0.3l0.2-1.4l4.1,4.2l1.6-1.6L96.8,95L95.5,96.3z M107.2,91.7c-0.7-0.5-1.5-0.6-2.4-0.3c0-0.9-0.4-1.6-1-2
	c-1.1-0.8-2.5-0.3-3.6,1.1c-1,1.4-0.9,2.8,0.3,3.7c0.6,0.4,1.4,0.5,2.1,0.3c-0.1,0.9,0.2,1.6,0.9,2.1c0.5,0.4,1,0.5,1.5,0.5
	c0.9,0,1.7-0.5,2.5-1.5c0.6-0.8,0.9-1.6,0.8-2.4C108.2,92.7,107.9,92.2,107.2,91.7z M103.1,92.4c-0.3,0.2-0.6,0.4-0.9,0.4
	c-0.1,0-0.3,0-0.4-0.1c-0.4-0.3-0.2-0.8,0-1.1c0.1-0.2,0.3-0.3,0.5-0.3c0.1,0,0.3,0.1,0.5,0.2C103.1,91.6,103.2,92,103.1,92.4z
	 M106.1,94.7c-0.3,0.4-0.8,0.5-1.2,0.2c-0.3-0.3-0.5-0.6-0.4-1.2c0.6-0.4,1.1-0.5,1.5-0.2c0.2,0.1,0.3,0.3,0.3,0.5
	C106.3,94.2,106.3,94.5,106.1,94.7z M111.2,83.3c-1.5-0.7-2.9-0.3-3.6,1.1c-0.2,0.4-0.3,0.8-0.2,1.2c-0.5-0.4-1-1.1-0.6-2
	c0.2-0.4,0.5-0.7,0.8-1l0.3-0.2l-1.6-1.1l-0.2,0.2c-0.4,0.4-0.8,0.9-1.1,1.5c-0.4,0.9-0.5,1.7-0.2,2.5c0.5,1.4,1.9,2.3,3,2.9
	c1,0.5,1.8,0.7,2.5,0.7c1.1,0,1.9-0.5,2.5-1.6C113.5,85.7,113,84.2,111.2,83.3z M111.1,86.6c-0.1,0.3-0.4,0.4-0.7,0.4
	c-0.2,0-0.5-0.1-0.7-0.2c-0.4-0.2-0.7-0.5-0.8-0.7c-0.1-0.2,0-0.3,0-0.5c0.1-0.3,0.3-0.4,0.6-0.4c0.2,0,0.5,0.1,0.8,0.2
	c0.4,0.2,0.6,0.4,0.7,0.7C111.2,86.2,111.2,86.4,111.1,86.6z M114.2,74.6c-1.7-0.5-3.1,0.3-3.6,1.9c0,0.2-0.1,0.3-0.1,0.4l-1-0.3
	l0.9-3l-1.7-0.5l-1.5,5l4.8,1.5l0-0.4c0-0.5,0.1-0.9,0.2-1.3c0.1-0.4,0.6-1.4,1.5-1.2c1,0.3,0.8,1.4,0.7,1.7c-0.2,0.6-0.5,1-0.8,1.4
	l-0.3,0.3l2,0.7l0.1-0.2c0.3-0.6,0.6-1.3,0.8-1.8c0.3-1,0.3-1.9-0.1-2.7C115.7,75.3,115,74.8,114.2,74.6z M19.8,63
	c0,24,19.5,43.5,43.5,43.5c24,0,43.5-19.5,43.5-43.5c0-24-19.5-43.5-43.5-43.5C39.3,19.5,19.8,39.1,19.8,63z M63.3,21
	c23.2,0,42,18.8,42,42c0,23.2-18.8,42-42,42c-23.2,0-42-18.8-42-42C21.3,39.9,40.2,21,63.3,21z M63.3,3.5
	C30.5,3.5,3.8,30.2,3.8,63.1c0,32.8,26.7,59.5,59.5,59.5c32.8,0,59.5-26.7,59.5-59.5C122.8,30.2,96.2,3.5,63.3,3.5z M63.3,121
	c-32,0-57.9-26-57.9-57.9c0-32,26-58,57.9-58c32,0,57.9,26,57.9,58C121.3,95,95.3,121,63.3,121z"/>
<g>
	
		<text transform="matrix(1 0 0 1 145.3376 48.1821)" opacity="0.63" fill="#FFFFFF" font-family="'Montserrat-Regular'" font-size="27.6531">Cornell University Library</text>
	<text transform="matrix(1 0 0 1 144.338 91.5376)" fill="#FFFFFF" font-family="'Montserrat-Regular'" font-size="39.494">THE ASIA COLLECTIONS</text>
</g>
</svg>
